<?xml version="1.0" encoding="UTF-8" standalone="no"?>
<!-- Created with Inkscape (http://www.inkscape.org/) -->

<svg
   width="512"
   height="512"
   viewBox="0 0 512 512"
   version="1.1"
   id="svg1"
   inkscape:version="1.4.2 (f4327f4, 2025-05-13)"
   sodipodi:docname="video-logo.svg"
   xmlns:inkscape="http://www.inkscape.org/namespaces/inkscape"
   xmlns:sodipodi="http://sodipodi.sourceforge.net/DTD/sodipodi-0.dtd"
   xmlns:xlink="http://www.w3.org/1999/xlink"
   xmlns="http://www.w3.org/2000/svg"
   xmlns:svg="http://www.w3.org/2000/svg">
  <sodipodi:namedview
     id="namedview1"
     pagecolor="#ffffff"
     bordercolor="#000000"
     borderopacity="0.25"
     inkscape:showpageshadow="2"
     inkscape:pageopacity="0.0"
     inkscape:pagecheckerboard="0"
     inkscape:deskcolor="#d1d1d1"
     inkscape:document-units="px"
     inkscape:zoom="0.99999999"
     inkscape:cx="218"
     inkscape:cy="273"
     inkscape:window-width="1920"
     inkscape:window-height="991"
     inkscape:window-x="-9"
     inkscape:window-y="-9"
     inkscape:window-maximized="1"
     inkscape:current-layer="svg1" />
  <defs
     id="defs1">
    <linearGradient
       id="swatch3"
       inkscape:swatch="solid">
      <stop
         style="stop-color:#e2d6c2;stop-opacity:1;"
         offset="0"
         id="stop3" />
    </linearGradient>
    <linearGradient
       id="swatch2"
       inkscape:swatch="solid">
      <stop
         style="stop-color:#151637;stop-opacity:1;"
         offset="0"
         id="stop2" />
    </linearGradient>
    <linearGradient
       inkscape:collect="always"
       xlink:href="#swatch3"
       id="linearGradient3"
       x1="3.0517578e-05"
       y1="282.66165"
       x2="512.00003"
       y2="282.66165"
       gradientUnits="userSpaceOnUse"
       gradientTransform="translate(-3.0517578e-5,-26.661652)" />
  </defs>
  <rect
     style="opacity:1;mix-blend-mode:normal;fill:url(#linearGradient3);stroke:#dfccb2;stroke-width:0;paint-order:stroke fill markers"
     id="rect1"
     width="512"
     height="512"
     x="0"
     y="0"
     rx="4.5000014"
     ry="3.9775381" />
  <g
     inkscape:groupmode="layer"
     id="layer2"
     inkscape:label="background" />
  <g
     inkscape:groupmode="layer"
     id="layer3"
     inkscape:label="logo">
    <g
       id="object"
       transform="matrix(-0.81695143,0,0,0.84050065,2699.2269,-610.61086)"
       style="fill:#3f3611;fill-opacity:1"
       inkscape:label="Video icon">
      <g
         id="g39"
         transform="translate(2576.9846,611.57107)">
        <path
           style="fill:#484537"
           d="m 383.327,283.458 h -83.215 l -47.393,-25.906 c -5.395,-2.898 -9.809,-0.258 -9.809,5.865 v 86.168 c 0,6.124 4.527,8.987 10.06,6.362 l 48.102,-22.76 h 82.254 c 4.793,0 8.679,-3.886 8.679,-8.679 v -32.372 c 10e-4,-4.793 -3.885,-8.678 -8.678,-8.678 z"
           id="path29" />
        <path
           style="fill:#484537"
           d="m 474.258,288.72 h 52.505 l 18.49,10.107 c 2.104,1.131 3.826,0.101 3.826,-2.288 v -33.617 c 0,-2.389 -1.767,-3.506 -3.925,-2.481 l -18.766,8.879 h -52.131 c -1.87,0 -3.386,1.516 -3.386,3.386 v 12.629 c 0.001,1.869 1.517,3.385 3.387,3.385 z"
           id="path30" />
        <path
           style="fill:#484537"
           d="M 545.138,667.837 423.449,394.488 c -0.492,-1.575 -1.729,-2.802 -3.31,-3.283 -0.044,-0.014 -0.088,-0.028 -0.133,-0.041 -0.174,-0.048 -0.35,-0.089 -0.53,-0.118 -0.205,-0.036 -0.414,-0.053 -0.624,-0.063 -0.055,-0.002 -0.107,-0.017 -0.162,-0.017 -0.009,0 -0.018,0.003 -0.026,0.003 -0.012,0 -0.023,-0.003 -0.035,-0.003 h -0.004 c -1.98,10e-4 -3.773,1.169 -4.577,2.979 L 292.3,667.842 c -1.122,2.529 0.02,5.49 2.549,6.61 2.529,1.126 5.49,-0.019 6.611,-2.548 l 112.219,-252.41 v 214.298 c 0,2.768 2.243,5.011 5.011,5.011 2.767,0 5.01,-2.243 5.01,-5.011 V 419.69 l 112.282,252.223 c 0.83,1.866 2.661,2.974 4.58,2.974 0.681,0 1.372,-0.139 2.035,-0.434 2.528,-1.126 3.666,-4.088 2.541,-6.616 z"
           id="path31"
           sodipodi:nodetypes="ccccccsssscccccsssccscc" />
        <rect
           x="467.18301"
           y="370.28101"
           transform="matrix(0.675,-0.7378,0.7378,0.675,-143.6775,478.3124)"
           style="fill:#6c6753"
           width="7.7930002"
           height="63.918999"
           id="rect31" />
        <path
           style="fill:#6c6753"
           d="m 443.681,386.885 c 0,13.221 -10.718,23.938 -23.939,23.938 -13.222,0 -23.939,-10.717 -23.939,-23.938 0,-13.221 10.717,-23.939 23.939,-23.939 13.221,0 23.939,10.718 23.939,23.939 z"
           id="path32" />
        <path
           style="fill:#484537"
           d="m 459.031,382.407 c 0,4.792 -3.886,8.677 -8.679,8.677 H 389.13 c -4.793,0 -8.678,-3.884 -8.678,-8.677 v -62.435 c 0,-4.793 3.885,-8.678 8.678,-8.678 h 61.222 c 4.793,0 8.679,3.885 8.679,8.678 z"
           id="path33" />
        <path
           style="fill:#484537"
           d="m 554.838,472.203 c -3.494,4.291 -9.806,4.938 -14.098,1.442 l -54.393,-44.289 c -4.292,-3.495 -4.939,-9.806 -1.444,-14.097 v 0 c 3.495,-4.293 9.807,-4.939 14.099,-1.444 l 54.393,44.29 c 4.29,3.495 4.938,9.805 1.443,14.098 z"
           id="path34" />
        <g
           id="g38">
          <polygon
             style="fill:#918a6f"
             points="465.035,231.129 465.035,256.737 373.318,256.737 373.318,231.129 420.43,225.626 "
             id="polygon34" />
          <path
             style="fill:#6c6753"
             d="m 375.439,156.595 c -27.654,0 -50.071,22.418 -50.071,50.071 0,27.653 22.417,50.071 50.071,50.071 27.653,0 50.071,-22.418 50.071,-50.071 0,-27.653 -22.418,-50.071 -50.071,-50.071 z m 0,66.639 c -9.15,0 -16.568,-7.417 -16.568,-16.568 0,-9.15 7.418,-16.567 16.568,-16.567 9.149,0 16.567,7.417 16.567,16.567 0,9.15 -7.418,16.568 -16.567,16.568 z"
             id="path35" />
          <path
             style="fill:#484537"
             d="m 396.831,206.666 c 0,11.814 -9.578,21.393 -21.392,21.393 -11.815,0 -21.393,-9.578 -21.393,-21.393 0,-11.815 9.578,-21.392 21.393,-21.392 11.814,0 21.392,9.577 21.392,21.392 z"
             id="path36" />
          <path
             style="fill:#6c6753"
             d="m 463.954,156.595 c -27.653,0 -50.07,22.418 -50.07,50.071 0,27.653 22.417,50.071 50.07,50.071 27.652,0 50.071,-22.418 50.071,-50.071 0,-27.653 -22.419,-50.071 -50.071,-50.071 z m 0,65.838 c -8.708,0 -15.766,-7.059 -15.766,-15.767 0,-8.707 7.058,-15.766 15.766,-15.766 8.707,0 15.767,7.059 15.767,15.766 0,8.708 -7.06,15.767 -15.767,15.767 z"
             id="path37" />
          <path
             style="fill:#484537"
             d="m 485.109,206.666 c 0,11.684 -9.472,21.155 -21.155,21.155 -11.684,0 -21.154,-9.471 -21.154,-21.155 0,-11.683 9.471,-21.154 21.154,-21.154 11.684,0 21.155,9.471 21.155,21.154 z"
             id="path38" />
        </g>
        <path
           style="fill:#918a6f"
           d="m 494.66,355.685 c 0,4.793 -3.886,8.678 -8.679,8.678 h -132.48 c -4.793,0 -8.678,-3.885 -8.678,-8.678 v -94.723 c 0,-4.793 3.885,-8.678 8.678,-8.678 h 132.48 c 4.793,0 8.679,3.885 8.679,8.678 z"
           id="path39" />
      </g>
    </g>
  </g>
</svg>
