<?xml version="1.0" encoding="UTF-8" standalone="no"?>
<!-- Created with Inkscape (http://www.inkscape.org/) -->

<svg
   width="490"
   height="180"
   viewBox="25 155 490 180"
   version="1.1"
   id="svg1"
   inkscape:version="1.4.2 (f4327f4, 2025-05-13)"
   sodipodi:docname="logo_tight.svg"
   xmlns:inkscape="http://www.inkscape.org/namespaces/inkscape"
   xmlns:sodipodi="http://sodipodi.sourceforge.net/DTD/sodipodi-0.dtd"
   xmlns:xlink="http://www.w3.org/1999/xlink"
   xmlns="http://www.w3.org/2000/svg"
   xmlns:svg="http://www.w3.org/2000/svg">
  <sodipodi:namedview
     id="namedview1"
     pagecolor="#ffffff"
     bordercolor="#000000"
     borderopacity="0.25"
     inkscape:showpageshadow="2"
     inkscape:pageopacity="0.0"
     inkscape:pagecheckerboard="0"
     inkscape:deskcolor="#d1d1d1"
     inkscape:document-units="px"
     inkscape:zoom="0.99999999"
     inkscape:cx="279"
     inkscape:cy="162.5"
     inkscape:window-width="1920"
     inkscape:window-height="991"
     inkscape:window-x="-9"
     inkscape:window-y="-9"
     inkscape:window-maximized="1"
     inkscape:current-layer="g45" />
  <defs
     id="defs1">
    <linearGradient
       id="linearGradient45"
       inkscape:collect="always">
      <stop
         style="stop-color:#dfccb2;stop-opacity:1;"
         offset="0"
         id="stop45" />
      <stop
         style="stop-color:#dfccb2;stop-opacity:0;"
         offset="1"
         id="stop46" />
    </linearGradient>
    <linearGradient
       inkscape:collect="always"
       xlink:href="#linearGradient45"
       id="linearGradient46"
       x1="182.57787"
       y1="241.06511"
       x2="252.46469"
       y2="241.06511"
       gradientUnits="userSpaceOnUse" />
  </defs>
  <g
     inkscape:groupmode="layer"
     id="layer2"
     inkscape:label="background">
    <rect
       style="fill:#efe5d7;stroke-width:0;paint-order:stroke fill markers;fill-opacity:1"
       id="rect1"
       width="490"
       height="180"
       x="25"
       y="155"
       rx="4.5"
       ry="4.5" />
  </g>
  <g
     inkscape:groupmode="layer"
     id="layer3"
     inkscape:label="logo">
    <g
       id="object"
       transform="matrix(-0.18277176,0,0,0.18804029,227.53806,175.49801)"
       style="fill:#3f3611;fill-opacity:1"
       inkscape:label="Video icon">
      <g
         id="g39">
        <path
           style="fill:#484537"
           d="m 383.327,283.458 h -83.215 l -47.393,-25.906 c -5.395,-2.898 -9.809,-0.258 -9.809,5.865 v 86.168 c 0,6.124 4.527,8.987 10.06,6.362 l 48.102,-22.76 h 82.254 c 4.793,0 8.679,-3.886 8.679,-8.679 v -32.372 c 10e-4,-4.793 -3.885,-8.678 -8.678,-8.678 z"
           id="path29" />
        <path
           style="fill:#484537"
           d="m 474.258,288.72 h 52.505 l 18.49,10.107 c 2.104,1.131 3.826,0.101 3.826,-2.288 v -33.617 c 0,-2.389 -1.767,-3.506 -3.925,-2.481 l -18.766,8.879 h -52.131 c -1.87,0 -3.386,1.516 -3.386,3.386 v 12.629 c 0.001,1.869 1.517,3.385 3.387,3.385 z"
           id="path30" />
        <path
           style="fill:#484537"
           d="M 545.138,667.837 423.449,394.488 c -0.492,-1.575 -1.729,-2.802 -3.31,-3.283 -0.044,-0.014 -0.088,-0.028 -0.133,-0.041 -0.174,-0.048 -0.35,-0.089 -0.53,-0.118 -0.205,-0.036 -0.414,-0.053 -0.624,-0.063 -0.055,-0.002 -0.107,-0.017 -0.162,-0.017 -0.009,0 -0.018,0.003 -0.026,0.003 -0.012,0 -0.023,-0.003 -0.035,-0.003 h -0.004 c -1.98,10e-4 -3.773,1.169 -4.577,2.979 L 292.3,667.842 c -1.122,2.529 0.02,5.49 2.549,6.61 2.529,1.126 5.49,-0.019 6.611,-2.548 l 112.219,-252.41 v 214.298 c 0,2.768 2.243,5.011 5.011,5.011 2.767,0 5.01,-2.243 5.01,-5.011 V 419.69 l 112.282,252.223 c 0.83,1.866 2.661,2.974 4.58,2.974 0.681,0 1.372,-0.139 2.035,-0.434 2.528,-1.126 3.666,-4.088 2.541,-6.616 z"
           id="path31"
           sodipodi:nodetypes="ccccccsssscccccsssccscc" />
        <rect
           x="467.18301"
           y="370.28101"
           transform="matrix(0.675,-0.7378,0.7378,0.675,-143.6775,478.3124)"
           style="fill:#6c6753"
           width="7.7930002"
           height="63.918999"
           id="rect31" />
        <path
           style="fill:#6c6753"
           d="m 443.681,386.885 c 0,13.221 -10.718,23.938 -23.939,23.938 -13.222,0 -23.939,-10.717 -23.939,-23.938 0,-13.221 10.717,-23.939 23.939,-23.939 13.221,0 23.939,10.718 23.939,23.939 z"
           id="path32" />
        <path
           style="fill:#484537"
           d="m 459.031,382.407 c 0,4.792 -3.886,8.677 -8.679,8.677 H 389.13 c -4.793,0 -8.678,-3.884 -8.678,-8.677 v -62.435 c 0,-4.793 3.885,-8.678 8.678,-8.678 h 61.222 c 4.793,0 8.679,3.885 8.679,8.678 z"
           id="path33" />
        <path
           style="fill:#484537"
           d="m 554.838,472.203 c -3.494,4.291 -9.806,4.938 -14.098,1.442 l -54.393,-44.289 c -4.292,-3.495 -4.939,-9.806 -1.444,-14.097 v 0 c 3.495,-4.293 9.807,-4.939 14.099,-1.444 l 54.393,44.29 c 4.29,3.495 4.938,9.805 1.443,14.098 z"
           id="path34" />
        <g
           id="g38">
          <polygon
             style="fill:#918a6f"
             points="373.318,231.129 420.43,225.626 465.035,231.129 465.035,256.737 373.318,256.737 "
             id="polygon34" />
          <path
             style="fill:#6c6753"
             d="m 375.439,156.595 c -27.654,0 -50.071,22.418 -50.071,50.071 0,27.653 22.417,50.071 50.071,50.071 27.653,0 50.071,-22.418 50.071,-50.071 0,-27.653 -22.418,-50.071 -50.071,-50.071 z m 0,66.639 c -9.15,0 -16.568,-7.417 -16.568,-16.568 0,-9.15 7.418,-16.567 16.568,-16.567 9.149,0 16.567,7.417 16.567,16.567 0,9.15 -7.418,16.568 -16.567,16.568 z"
             id="path35" />
          <path
             style="fill:#484537"
             d="m 396.831,206.666 c 0,11.814 -9.578,21.393 -21.392,21.393 -11.815,0 -21.393,-9.578 -21.393,-21.393 0,-11.815 9.578,-21.392 21.393,-21.392 11.814,0 21.392,9.577 21.392,21.392 z"
             id="path36" />
          <path
             style="fill:#6c6753"
             d="m 463.954,156.595 c -27.653,0 -50.07,22.418 -50.07,50.071 0,27.653 22.417,50.071 50.07,50.071 27.652,0 50.071,-22.418 50.071,-50.071 0,-27.653 -22.419,-50.071 -50.071,-50.071 z m 0,65.838 c -8.708,0 -15.766,-7.059 -15.766,-15.767 0,-8.707 7.058,-15.766 15.766,-15.766 8.707,0 15.767,7.059 15.767,15.766 0,8.708 -7.06,15.767 -15.767,15.767 z"
             id="path37" />
          <path
             style="fill:#484537"
             d="m 485.109,206.666 c 0,11.684 -9.472,21.155 -21.155,21.155 -11.684,0 -21.154,-9.471 -21.154,-21.155 0,-11.683 9.471,-21.154 21.154,-21.154 11.684,0 21.155,9.471 21.155,21.154 z"
             id="path38" />
        </g>
        <path
           style="fill:#918a6f"
           d="m 494.66,355.685 c 0,4.793 -3.886,8.678 -8.679,8.678 h -132.48 c -4.793,0 -8.678,-3.885 -8.678,-8.678 v -94.723 c 0,-4.793 3.885,-8.678 8.678,-8.678 h 132.48 c 4.793,0 8.679,3.885 8.679,8.678 z"
           id="path39" />
      </g>
      <circle
         style="display:inline;fill:#3f3611;fill-opacity:1;stroke-width:0;paint-order:stroke fill markers"
         id="path45-6"
         r="12.020816"
         cy="181.23402"
         cx="151.65685"
         transform="matrix(-5.4713048,0,0,5.3180092,1244.9301,-933.30004)" />
    </g>
    <g
       id="g45"
       inkscape:label="Guide">
      <path
         d="m 298.01716,239.58791 v 33.44937 q 0,9.22202 4.53286,14.06749 4.68916,5.00178 11.87921,5.00178 4.06395,0 8.12789,-1.71936 4.22025,-1.71936 7.03374,-4.68917 v 5.627 h 16.25577 v -51.73711 h -16.25577 v 28.6039 q 0,5.15808 -3.28241,8.90941 -3.28242,3.75133 -6.40852,3.75133 -2.6572,0 -4.22025,-1.71936 -1.40675,-1.71936 -1.40675,-6.25221 v -33.29307 z m 60.64652,-19.69449 v 15.00533 h 16.25577 v -15.00533 z m 0,19.69449 v 51.73711 h 16.25577 v -51.73711 z m 73.61988,-18.28774 h -16.25577 v 22.50799 q -1.40675,-2.03197 -4.53286,-3.43872 -3.12611,-1.40675 -6.56483,-1.40675 -8.28419,0 -14.2238,6.87744 -5.7833,6.72114 -5.7833,19.69449 0,12.34813 6.09591,19.38188 6.25222,7.03374 14.2238,7.03374 4.06394,0 6.56483,-1.71936 2.65719,-1.56305 4.22025,-4.53286 v 5.627 h 16.25577 z m -23.91474,28.91651 q 3.43872,0 5.31439,4.53286 1.87566,4.37655 1.87566,11.25399 0,6.87745 -2.18828,10.78508 -2.18827,3.90764 -5.00177,3.90764 -2.9698,0 -5.15808,-3.75133 -2.03197,-3.75133 -2.03197,-10.94139 0,-7.34635 1.87566,-11.5666 1.87567,-4.22025 5.31439,-4.22025 z m 59.08346,-11.25399 q -11.4103,0 -18.28774,7.50266 -6.87744,7.34636 -6.87744,19.38188 0,12.03552 6.56483,19.06927 6.72113,7.03374 18.13143,7.03374 9.69094,0 15.94316,-4.84547 6.25222,-4.84547 9.22202,-11.87921 h -16.25577 q -0.62522,2.03197 -3.12611,3.75133 -2.50088,1.71936 -5.7833,1.71936 -3.43872,0 -6.09591,-2.8135 -2.50089,-2.8135 -2.34458,-7.19005 h 33.76198 q 0.78152,-13.75488 -6.09592,-22.66429 -6.72113,-9.06572 -18.75665,-9.06572 z m -0.31261,11.25399 q 4.22024,0 6.40852,2.50089 2.34458,2.34458 2.50089,6.72114 h -17.50621 q 0,-3.90764 2.34458,-6.56483 2.34458,-2.6572 6.25222,-2.6572 z"
         id="text1-7"
         style="font-size:80.0284px;font-family:'Headline R';-inkscape-font-specification:'Headline R, Normal';fill:#3f3611;stroke-width:0;paint-order:stroke fill markers"
         inkscape:label="uide"
         aria-label="uide" />
      <path
         d="m 256.72912,220.36236 q -13.75488,0 -22.97691,9.69094 -9.06571,9.69094 -9.06571,26.41562 0,17.1936 8.5968,26.25932 8.5968,8.90941 20.47601,8.90941 6.25222,0 11.09769,-2.18828 4.84547,-2.18827 6.72114,-5.31438 v 6.87744 h 16.25576 v -37.2007 h -30.47956 v 11.25399 h 12.66074 q -0.1563,5.627 -3.12611,10.15986 -2.8135,4.53285 -9.22202,4.53285 -6.72114,0 -11.4103,-5.47069 -4.68916,-5.47069 -4.68916,-17.81882 0,-11.5666 4.53285,-17.81882 4.68917,-6.40853 10.94139,-6.40853 5.7833,0 9.06571,2.96981 3.28242,2.8135 3.75134,7.34635 h 16.25576 q -1.09414,-9.69093 -8.28419,-15.94315 -7.19005,-6.25222 -21.10123,-6.25222 z"
         id="text1-7-2"
         style="font-size:80.0284px;font-family:'Headline R';-inkscape-font-specification:'Headline R, Normal';fill:#be852c;stroke:#dfccb2;stroke-width:0;paint-order:stroke fill markers;fill-opacity:0.35686275"
         inkscape:label="G"
         aria-label="G" />
      <path
         style="display:inline;fill:#efe5d7;fill-opacity:1;stroke-width:0;paint-order:stroke fill markers"
         d="m 378.25,218.625 -20.5,-0.375 0.25,19 21.875,-0.125 z"
         id="path2"
         inkscape:label="O" />
    </g>
    <g
       id="g1"
       inkscape:label="A">
      <path
         d="m 73.99643,214.0572 -34.2999,83.88563 h 20.505375 l 6.151613,-14.72659 h 28.707524 l 6.151608,14.72659 h 20.50538 L 87.41813,214.0572 Z m -2.423362,53.12756 9.134212,-24.79286 9.134212,24.79286 z"
         id="text1"
         style="font-size:95.4432px;font-family:'Headline R';-inkscape-font-specification:'Headline R, Normal';fill:#3f3611;stroke-width:0;paint-order:stroke fill markers"
         aria-label="A" />
      <path
         style="display:none;fill:#ceb087;fill-opacity:1;stroke-width:0;paint-order:stroke fill markers"
         d="m 89.758636,266.89984 -18.154652,0.17269 -11.28102,31.03235 41.088266,0.0933 z"
         id="path1"
         sodipodi:nodetypes="ccccc" />
    </g>
    <path
       style="opacity:1;fill:url(#linearGradient46);stroke-width:0;paint-order:stroke fill markers"
       d="m 182.57787,223.82221 0.46226,0.5739 0.10084,16.83796 -0.31706,1.01704 69.3639,78.75972 0.27145,-148.48133 z"
       id="path24"
       sodipodi:nodetypes="ccccccc"
       inkscape:label="flash-effect" />
    <circle
       style="display:inline;opacity:1;fill:#be852c;fill-opacity:0.35686275;stroke-width:0;paint-order:stroke fill markers"
       id="path45"
       r="12.020816"
       cy="222.38509"
       cx="366.98843" />
  </g>
</svg>
